<mxfile host="65bd71144e">
    <diagram id="0I4YDjx3Yqs-tB8-v0ft" name="Page-1">
        <mxGraphModel dx="1234" dy="847" grid="1" gridSize="10" guides="1" tooltips="1" connect="1" arrows="1" fold="1" page="1" pageScale="1" pageWidth="827" pageHeight="1169" math="0" shadow="0">
            <root>
                <mxCell id="0"/>
                <mxCell id="1" parent="0"/>
                <mxCell id="C_9IiZrpuGii28uyMCTy-1" value="&lt;b&gt;Product&lt;/b&gt;" style="html=1;" parent="1" vertex="1">
                    <mxGeometry x="50" y="205" width="80" height="30" as="geometry"/>
                </mxCell>
                <mxCell id="C_9IiZrpuGii28uyMCTy-3" style="edgeStyle=orthogonalEdgeStyle;rounded=0;orthogonalLoop=1;jettySize=auto;html=1;exitX=0;exitY=0.5;exitDx=0;exitDy=0;entryX=1;entryY=0.5;entryDx=0;entryDy=0;dashed=1;endArrow=blockThin;endFill=1;" parent="1" source="C_9IiZrpuGii28uyMCTy-4" target="C_9IiZrpuGii28uyMCTy-1" edge="1">
                    <mxGeometry relative="1" as="geometry">
                        <mxPoint x="170" y="220" as="sourcePoint"/>
                    </mxGeometry>
                </mxCell>
                <mxCell id="C_9IiZrpuGii28uyMCTy-4" value="&lt;p style=&quot;margin: 0px ; margin-top: 4px ; text-align: center&quot;&gt;&lt;b&gt;Creator&lt;/b&gt;&lt;br&gt;&lt;/p&gt;&lt;hr size=&quot;1&quot;&gt;&lt;div style=&quot;height: 2px&quot;&gt;&amp;nbsp;factory_method(): Product&lt;/div&gt;" style="verticalAlign=top;align=left;overflow=fill;fontSize=12;fontFamily=Helvetica;html=1;" parent="1" vertex="1">
                    <mxGeometry x="180" y="190" width="160" height="60" as="geometry"/>
                </mxCell>
                <mxCell id="C_9IiZrpuGii28uyMCTy-7" style="edgeStyle=orthogonalEdgeStyle;rounded=0;orthogonalLoop=1;jettySize=auto;html=1;exitX=0.75;exitY=1;exitDx=0;exitDy=0;entryX=0.5;entryY=0;entryDx=0;entryDy=0;dashed=1;endArrow=blockThin;endFill=1;" parent="1" source="C_9IiZrpuGii28uyMCTy-5" target="C_9IiZrpuGii28uyMCTy-4" edge="1">
                    <mxGeometry relative="1" as="geometry"/>
                </mxCell>
                <mxCell id="C_9IiZrpuGii28uyMCTy-5" value="&lt;p style=&quot;margin: 0px ; margin-top: 4px ; text-align: center&quot;&gt;&lt;b&gt;Client&lt;/b&gt;&lt;/p&gt;&lt;hr size=&quot;1&quot;&gt;&lt;div style=&quot;height: 2px&quot;&gt;&lt;/div&gt;" style="verticalAlign=top;align=left;overflow=fill;fontSize=12;fontFamily=Helvetica;html=1;" parent="1" vertex="1">
                    <mxGeometry x="100" y="90" width="140" height="60" as="geometry"/>
                </mxCell>
                <mxCell id="C_9IiZrpuGii28uyMCTy-6" style="edgeStyle=orthogonalEdgeStyle;rounded=0;orthogonalLoop=1;jettySize=auto;html=1;entryX=0.5;entryY=0;entryDx=0;entryDy=0;dashed=1;endArrow=blockThin;endFill=1;exitX=0.25;exitY=1;exitDx=0;exitDy=0;" parent="1" source="C_9IiZrpuGii28uyMCTy-5" target="C_9IiZrpuGii28uyMCTy-1" edge="1">
                    <mxGeometry relative="1" as="geometry">
                        <mxPoint x="110" y="120" as="sourcePoint"/>
                        <mxPoint x="90" y="230" as="targetPoint"/>
                    </mxGeometry>
                </mxCell>
                <mxCell id="C_9IiZrpuGii28uyMCTy-8" value="Factory Method Pattern without abstraction" style="text;html=1;strokeColor=none;fillColor=none;align=left;verticalAlign=middle;whiteSpace=wrap;rounded=0;" parent="1" vertex="1">
                    <mxGeometry x="40" y="30" width="510" height="30" as="geometry"/>
                </mxCell>
                <mxCell id="C_9IiZrpuGii28uyMCTy-10" value="&lt;b&gt;Product&lt;/b&gt;" style="html=1;" parent="1" vertex="1">
                    <mxGeometry x="60" y="535" width="110" height="30" as="geometry"/>
                </mxCell>
                <mxCell id="C_9IiZrpuGii28uyMCTy-11" style="edgeStyle=orthogonalEdgeStyle;rounded=0;orthogonalLoop=1;jettySize=auto;html=1;exitX=0;exitY=0.5;exitDx=0;exitDy=0;entryX=1;entryY=0.5;entryDx=0;entryDy=0;dashed=1;endArrow=blockThin;endFill=1;" parent="1" source="C_9IiZrpuGii28uyMCTy-12" target="C_9IiZrpuGii28uyMCTy-10" edge="1">
                    <mxGeometry relative="1" as="geometry">
                        <mxPoint x="210" y="550" as="sourcePoint"/>
                    </mxGeometry>
                </mxCell>
                <mxCell id="C_9IiZrpuGii28uyMCTy-12" value="&lt;p style=&quot;margin: 0px ; margin-top: 4px ; text-align: center&quot;&gt;&lt;b&gt;Creator&lt;/b&gt;&lt;br&gt;&lt;/p&gt;&lt;hr size=&quot;1&quot;&gt;&lt;div style=&quot;height: 2px&quot;&gt;&lt;i&gt;&amp;nbsp;factory_method()&lt;/i&gt;&lt;/div&gt;" style="verticalAlign=top;align=left;overflow=fill;fontSize=12;fontFamily=Helvetica;html=1;" parent="1" vertex="1">
                    <mxGeometry x="220" y="520" width="160" height="60" as="geometry"/>
                </mxCell>
                <mxCell id="C_9IiZrpuGii28uyMCTy-13" style="edgeStyle=orthogonalEdgeStyle;rounded=0;orthogonalLoop=1;jettySize=auto;html=1;exitX=0.75;exitY=1;exitDx=0;exitDy=0;entryX=0.5;entryY=0;entryDx=0;entryDy=0;dashed=1;endArrow=blockThin;endFill=1;" parent="1" source="C_9IiZrpuGii28uyMCTy-14" target="C_9IiZrpuGii28uyMCTy-12" edge="1">
                    <mxGeometry relative="1" as="geometry"/>
                </mxCell>
                <mxCell id="C_9IiZrpuGii28uyMCTy-14" value="&lt;p style=&quot;margin: 0px ; margin-top: 4px ; text-align: center&quot;&gt;&lt;b&gt;Client&lt;/b&gt;&lt;/p&gt;&lt;hr size=&quot;1&quot;&gt;&lt;div style=&quot;height: 2px&quot;&gt;&lt;/div&gt;" style="verticalAlign=top;align=left;overflow=fill;fontSize=12;fontFamily=Helvetica;html=1;" parent="1" vertex="1">
                    <mxGeometry x="130" y="410" width="140" height="60" as="geometry"/>
                </mxCell>
                <mxCell id="C_9IiZrpuGii28uyMCTy-15" style="edgeStyle=orthogonalEdgeStyle;rounded=0;orthogonalLoop=1;jettySize=auto;html=1;entryX=0.5;entryY=0;entryDx=0;entryDy=0;dashed=1;endArrow=blockThin;endFill=1;exitX=0.25;exitY=1;exitDx=0;exitDy=0;" parent="1" source="C_9IiZrpuGii28uyMCTy-14" target="C_9IiZrpuGii28uyMCTy-10" edge="1">
                    <mxGeometry relative="1" as="geometry">
                        <mxPoint x="160" y="420" as="sourcePoint"/>
                        <mxPoint x="140" y="530" as="targetPoint"/>
                    </mxGeometry>
                </mxCell>
                <mxCell id="C_9IiZrpuGii28uyMCTy-16" value="Factory Method Pattern with abstraction" style="text;html=1;strokeColor=none;fillColor=none;align=left;verticalAlign=middle;whiteSpace=wrap;rounded=0;" parent="1" vertex="1">
                    <mxGeometry x="90" y="330" width="510" height="30" as="geometry"/>
                </mxCell>
                <mxCell id="C_9IiZrpuGii28uyMCTy-21" style="edgeStyle=orthogonalEdgeStyle;rounded=0;orthogonalLoop=1;jettySize=auto;html=1;exitX=0.5;exitY=0;exitDx=0;exitDy=0;entryX=0.5;entryY=1;entryDx=0;entryDy=0;endArrow=block;endFill=0;" parent="1" source="C_9IiZrpuGii28uyMCTy-17" target="C_9IiZrpuGii28uyMCTy-10" edge="1">
                    <mxGeometry relative="1" as="geometry"/>
                </mxCell>
                <mxCell id="C_9IiZrpuGii28uyMCTy-17" value="&lt;b&gt;ConcreteProduct&lt;/b&gt;" style="html=1;" parent="1" vertex="1">
                    <mxGeometry x="60" y="625" width="110" height="30" as="geometry"/>
                </mxCell>
                <mxCell id="C_9IiZrpuGii28uyMCTy-18" style="edgeStyle=orthogonalEdgeStyle;rounded=0;orthogonalLoop=1;jettySize=auto;html=1;exitX=0;exitY=0.5;exitDx=0;exitDy=0;entryX=1;entryY=0.5;entryDx=0;entryDy=0;dashed=1;endArrow=blockThin;endFill=1;" parent="1" source="C_9IiZrpuGii28uyMCTy-19" target="C_9IiZrpuGii28uyMCTy-17" edge="1">
                    <mxGeometry relative="1" as="geometry">
                        <mxPoint x="210" y="640" as="sourcePoint"/>
                    </mxGeometry>
                </mxCell>
                <mxCell id="C_9IiZrpuGii28uyMCTy-20" style="edgeStyle=orthogonalEdgeStyle;rounded=0;orthogonalLoop=1;jettySize=auto;html=1;exitX=0.5;exitY=0;exitDx=0;exitDy=0;entryX=0.5;entryY=1;entryDx=0;entryDy=0;endArrow=block;endFill=0;" parent="1" source="C_9IiZrpuGii28uyMCTy-19" target="C_9IiZrpuGii28uyMCTy-12" edge="1">
                    <mxGeometry relative="1" as="geometry"/>
                </mxCell>
                <mxCell id="C_9IiZrpuGii28uyMCTy-19" value="&lt;p style=&quot;margin: 0px ; margin-top: 4px ; text-align: center&quot;&gt;&lt;b&gt;ConcreteCreator&lt;/b&gt;&lt;br&gt;&lt;/p&gt;&lt;hr size=&quot;1&quot;&gt;&lt;div style=&quot;height: 2px&quot;&gt;&amp;nbsp;factory_method(): Product&lt;/div&gt;" style="verticalAlign=top;align=left;overflow=fill;fontSize=12;fontFamily=Helvetica;html=1;" parent="1" vertex="1">
                    <mxGeometry x="220" y="610" width="160" height="60" as="geometry"/>
                </mxCell>
                <mxCell id="C_9IiZrpuGii28uyMCTy-22" value="&lt;b&gt;Product&lt;/b&gt;" style="html=1;" parent="1" vertex="1">
                    <mxGeometry x="70" y="1085" width="80" height="30" as="geometry"/>
                </mxCell>
                <mxCell id="C_9IiZrpuGii28uyMCTy-23" style="edgeStyle=orthogonalEdgeStyle;rounded=0;orthogonalLoop=1;jettySize=auto;html=1;exitX=0;exitY=0.5;exitDx=0;exitDy=0;entryX=1;entryY=0.5;entryDx=0;entryDy=0;dashed=1;endArrow=blockThin;endFill=1;" parent="1" source="C_9IiZrpuGii28uyMCTy-24" target="C_9IiZrpuGii28uyMCTy-22" edge="1">
                    <mxGeometry relative="1" as="geometry">
                        <mxPoint x="190" y="1100" as="sourcePoint"/>
                    </mxGeometry>
                </mxCell>
                <mxCell id="C_9IiZrpuGii28uyMCTy-24" value="&lt;p style=&quot;margin: 0px ; margin-top: 4px ; text-align: center&quot;&gt;&lt;b&gt;Creator&lt;/b&gt;&lt;br&gt;&lt;/p&gt;&lt;hr size=&quot;1&quot;&gt;&lt;div style=&quot;height: 2px&quot;&gt;&amp;nbsp;factory_method(): Product&lt;/div&gt;" style="verticalAlign=top;align=left;overflow=fill;fontSize=12;fontFamily=Helvetica;html=1;" parent="1" vertex="1">
                    <mxGeometry x="200" y="1070" width="160" height="60" as="geometry"/>
                </mxCell>
                <mxCell id="C_9IiZrpuGii28uyMCTy-25" style="edgeStyle=orthogonalEdgeStyle;rounded=0;orthogonalLoop=1;jettySize=auto;html=1;exitX=0.75;exitY=1;exitDx=0;exitDy=0;entryX=0.5;entryY=0;entryDx=0;entryDy=0;dashed=1;endArrow=blockThin;endFill=1;" parent="1" source="C_9IiZrpuGii28uyMCTy-26" target="C_9IiZrpuGii28uyMCTy-24" edge="1">
                    <mxGeometry relative="1" as="geometry"/>
                </mxCell>
                <mxCell id="C_9IiZrpuGii28uyMCTy-26" value="&lt;p style=&quot;margin: 0px ; margin-top: 4px ; text-align: center&quot;&gt;&lt;b&gt;Client&lt;/b&gt;&lt;/p&gt;&lt;hr size=&quot;1&quot;&gt;&lt;div style=&quot;height: 2px&quot;&gt;&lt;/div&gt;" style="verticalAlign=top;align=left;overflow=fill;fontSize=12;fontFamily=Helvetica;html=1;" parent="1" vertex="1">
                    <mxGeometry x="120" y="970" width="140" height="60" as="geometry"/>
                </mxCell>
                <mxCell id="C_9IiZrpuGii28uyMCTy-27" style="edgeStyle=orthogonalEdgeStyle;rounded=0;orthogonalLoop=1;jettySize=auto;html=1;entryX=0.5;entryY=0;entryDx=0;entryDy=0;dashed=1;endArrow=blockThin;endFill=1;exitX=0.25;exitY=1;exitDx=0;exitDy=0;" parent="1" source="C_9IiZrpuGii28uyMCTy-26" target="C_9IiZrpuGii28uyMCTy-22" edge="1">
                    <mxGeometry relative="1" as="geometry">
                        <mxPoint x="130" y="1000" as="sourcePoint"/>
                        <mxPoint x="110" y="1110" as="targetPoint"/>
                    </mxGeometry>
                </mxCell>
                <mxCell id="C_9IiZrpuGii28uyMCTy-28" value="Factory Method Pattern with Dependency Injection" style="text;html=1;strokeColor=none;fillColor=none;align=left;verticalAlign=middle;whiteSpace=wrap;rounded=0;" parent="1" vertex="1">
                    <mxGeometry x="40" y="790" width="510" height="30" as="geometry"/>
                </mxCell>
                <mxCell id="C_9IiZrpuGii28uyMCTy-30" style="edgeStyle=orthogonalEdgeStyle;rounded=0;orthogonalLoop=1;jettySize=auto;html=1;exitX=1;exitY=0.5;exitDx=0;exitDy=0;entryX=1;entryY=0.5;entryDx=0;entryDy=0;endArrow=openThin;endFill=0;" parent="1" source="C_9IiZrpuGii28uyMCTy-29" target="C_9IiZrpuGii28uyMCTy-24" edge="1">
                    <mxGeometry relative="1" as="geometry"/>
                </mxCell>
                <mxCell id="C_9IiZrpuGii28uyMCTy-31" style="edgeStyle=orthogonalEdgeStyle;rounded=0;orthogonalLoop=1;jettySize=auto;html=1;exitX=0.5;exitY=1;exitDx=0;exitDy=0;entryX=0.5;entryY=0;entryDx=0;entryDy=0;endArrow=openThin;endFill=0;" parent="1" source="C_9IiZrpuGii28uyMCTy-29" target="C_9IiZrpuGii28uyMCTy-26" edge="1">
                    <mxGeometry relative="1" as="geometry"/>
                </mxCell>
                <mxCell id="C_9IiZrpuGii28uyMCTy-29" value="&lt;p style=&quot;margin: 0px ; margin-top: 4px ; text-align: center&quot;&gt;&lt;b&gt;Injector&lt;/b&gt;&lt;/p&gt;&lt;hr size=&quot;1&quot;&gt;&lt;div style=&quot;height: 2px&quot;&gt;&lt;/div&gt;" style="verticalAlign=top;align=left;overflow=fill;fontSize=12;fontFamily=Helvetica;html=1;" parent="1" vertex="1">
                    <mxGeometry x="120" y="870" width="140" height="60" as="geometry"/>
                </mxCell>
            </root>
        </mxGraphModel>
    </diagram>
</mxfile>